HIERARCHY
ROOT Hips
{
	OFFSET 0.00000 0.00000 0.00000
	CHANNELS 6 Xposition Yposition Zposition Zrotation Yrotation Xrotation 
	JOINT LHipJoint
	{
		OFFSET 0 0 0
		CHANNELS 3 Zrotation Yrotation Xrotation
		JOINT LeftUpLeg
		{
			OFFSET 1.30186 -1.90722 0.65024
			CHANNELS 3 Zrotation Yrotation Xrotation
			JOINT LeftLeg
			{
				OFFSET 2.56413 -7.04489 0.00000
				CHANNELS 3 Zrotation Yrotation Xrotation
				JOINT LeftFoot
				{
					OFFSET 2.79321 -7.67428 0.00000
					CHANNELS 3 Zrotation Yrotation Xrotation
					JOINT LeftToeBase
					{
						OFFSET 0.15723 -0.43198 2.08537
						CHANNELS 3 Zrotation Yrotation Xrotation
						End Site
						{
							OFFSET 0.00000 -0.00000 1.07411
						}
					}
				}
			}
		}
	}
	JOINT RHipJoint
	{
		OFFSET 0 0 0
		CHANNELS 3 Zrotation Yrotation Xrotation
		JOINT RightUpLeg
		{
			OFFSET -1.28627 -1.90723 0.65024
			CHANNELS 3 Zrotation Yrotation Xrotation
			JOINT RightLeg
			{
				OFFSET -2.56567 -7.04913 0.00000
				CHANNELS 3 Zrotation Yrotation Xrotation
				JOINT RightFoot
				{
					OFFSET -2.75597 -7.57198 0.00000
					CHANNELS 3 Zrotation Yrotation Xrotation
					JOINT RightToeBase
					{
						OFFSET -0.17500 -0.48081 2.22901
						CHANNELS 3 Zrotation Yrotation Xrotation
						End Site
						{
							OFFSET -0.00000 -0.00000 1.14762
						}
					}
				}
			}
		}
	}
	JOINT LowerBack
	{
		OFFSET 0 0 0
		CHANNELS 3 Zrotation Yrotation Xrotation
		JOINT Spine
		{
			OFFSET -0.04522 2.07467 -0.16566
			CHANNELS 3 Zrotation Yrotation Xrotation
			JOINT Spine1
			{
				OFFSET -0.01178 2.08825 -0.05393
				CHANNELS 3 Zrotation Yrotation Xrotation
				JOINT Neck
				{
					OFFSET 0 0 0
					CHANNELS 3 Zrotation Yrotation Xrotation
					JOINT Neck1
					{
						OFFSET -0.05182 1.80489 0.16014
						CHANNELS 3 Zrotation Yrotation Xrotation
						JOINT Head
						{
							OFFSET 0.14739 1.78840 -0.33342
							CHANNELS 3 Zrotation Yrotation Xrotation
							End Site
							{
								OFFSET 0.04364 1.83899 -0.13460
							}
						}
					}
				}
				JOINT LeftShoulder
				{
					OFFSET 0 0 0
					CHANNELS 3 Zrotation Yrotation Xrotation
					JOINT LeftArm
					{
						OFFSET 3.01264 1.29090 -0.06579
						CHANNELS 3 Zrotation Yrotation Xrotation
						JOINT LeftForeArm
						{
							OFFSET 5.55680 -0.00000 0.00000
							CHANNELS 3 Zrotation Yrotation Xrotation
							JOINT LeftHand
							{
								OFFSET 3.63979 -0.00000 -0.00000
								CHANNELS 3 Zrotation Yrotation Xrotation
								JOINT LeftFingerBase
								{
									OFFSET 0 0 0
									CHANNELS 3 Zrotation Yrotation Xrotation
									JOINT LeftHandIndex1
									{
										OFFSET 0.56942 -0.00000 -0.00000
										CHANNELS 3 Zrotation Yrotation Xrotation
										End Site
										{
											OFFSET 0.45908 -0.00000 -0.00000
										}
									}
								}
								JOINT LThumb
								{
									OFFSET 0 0 0
									CHANNELS 3 Zrotation Yrotation Xrotation
									End Site
									{
										OFFSET 0.46609 -0.00000 0.46609
									}
								}
							}
						}
					}
				}
				JOINT RightShoulder
				{
					OFFSET 0 0 0
					CHANNELS 3 Zrotation Yrotation Xrotation
					JOINT RightArm
					{
						OFFSET -3.15796 1.37283 -0.36748
						CHANNELS 3 Zrotation Yrotation Xrotation
						JOINT RightForeArm
						{
							OFFSET -5.34339 -0.00000 0.00000
							CHANNELS 3 Zrotation Yrotation Xrotation
							JOINT RightHand
							{
								OFFSET -3.65101 -0.00000 -0.00000
								CHANNELS 3 Zrotation Yrotation Xrotation
								JOINT RightFingerBase
								{
									OFFSET 0 0 0
									CHANNELS 3 Zrotation Yrotation Xrotation
									JOINT RightHandIndex1
									{
										OFFSET -0.69425 -0.00000 -0.00000
										CHANNELS 3 Zrotation Yrotation Xrotation
										End Site
										{
											OFFSET -0.55972 -0.00000 -0.00000
										}
									}
								}
								JOINT RThumb
								{
									OFFSET 0 0 0
									CHANNELS 3 Zrotation Yrotation Xrotation
									End Site
									{
										OFFSET -0.56827 -0.00000 0.56827
									}
								}
							}
						}
					}
				}
			}
		}
	}
}
MOTION
Frames: 13
Frame Time: .0083333
9.5900 18.3982 -12.4690 6.8746 37.7565 1.9952 0.0000 0.0000 0.0000 -18.9116 -16.2065 7.4980 0.0000 -0.0000 -0.0000 -0.2856 -10.6046 9.0869 0.1608 2.5838 7.1222 0.0000 0.0000 0.0000 13.7594 -0.6416 5.0577 -0.5954 -4.9400 13.7374 1.0708 -27.8466 -33.1033 -2.0671 -9.0045 25.8094 6.2892 2.5564 -6.8284 5.1709 2.7733 -0.2023 2.1289 1.4642 3.6653 -14.7439 -14.3285 1.6007 7.9205 -19.4461 1.4226 3.9287 -9.7653 2.3376 0.0000 0.0000 0.0000 23.5964 -21.4416 -33.7694 51.1439 -53.4466 -27.0904 -0.0000 -0.0000 18.8245 29.9274 11.0476 6.2949 -7.1250 0.0000 -0.0000 2.5566 42.6614 -0.1476 0.0000 0.0000 0.0000 92.9887 58.0858 76.7579 -49.9161 52.9616 -26.1072 0.0000 0.0000 13.6341 -38.2895 43.3027 -28.4333 7.1250 -0.0000 -0.0000 -0.1736 20.2316 -0.2229
9.5932 18.3987 -12.4562 7.0447 37.6591 2.1185 0.0000 0.0000 0.0000 -19.0694 -16.2487 7.5540 0.0000 -0.0000 -0.0000 -0.2805 -10.4753 8.9107 0.1721 2.6724 7.3681 0.0000 0.0000 0.0000 13.6212 -0.5376 5.1687 -0.5861 -4.9016 13.6282 0.9935 -27.6858 -33.3145 -2.1344 -9.1406 26.2363 5.9209 2.3663 -7.0156 5.0971 2.5233 -0.0969 2.2427 1.3373 3.8649 -14.7992 -14.2460 1.0490 8.0090 -19.2758 1.8363 3.9134 -9.6738 2.5450 -0.0000 -0.0000 0.0000 23.7894 -21.3318 -33.9669 51.3804 -53.5373 -27.2805 -0.0000 -0.0000 19.0147 35.6791 21.1848 14.5461 -7.1250 0.0000 -0.0000 7.6650 55.3232 1.9509 -0.0000 -0.0000 0.0000 92.8808 60.1689 78.1951 -49.7561 52.8966 -25.9795 0.0000 0.0000 15.1577 -38.1900 44.3491 -28.8057 7.1250 -0.0000 -0.0000 0.2385 21.2196 0.3087
9.6020 18.3984 -12.4422 7.0485 37.5444 2.1395 0.0000 0.0000 0.0000 -19.0857 -16.5070 6.9685 0.0052 0.4656 1.2794 -0.3238 -10.7827 8.2064 0.1570 2.5529 7.0363 0.0000 0.0000 0.0000 13.5890 -0.4923 5.2711 -0.5750 -4.8562 13.4988 0.9196 -27.4826 -33.4334 -2.1992 -9.2693 26.6413 5.4614 2.1729 -6.9827 5.2286 2.3176 -0.2786 2.6046 1.2235 3.6310 -15.1486 -14.0382 1.0183 8.1039 -19.0066 2.0816 3.9939 -9.5448 2.6365 0.0000 0.0000 0.0000 23.5431 -21.1729 -33.4675 51.9880 -53.7665 -27.7699 -0.0000 -0.0000 19.0622 47.5352 35.7283 32.5398 -7.1250 0.0000 -0.0000 28.4773 75.2735 20.6688 0.0000 0.0000 0.0000 92.0821 61.9603 79.5962 -49.8087 52.9181 -26.0215 0.0000 0.0000 15.6009 -37.2358 45.0797 -28.2877 7.1250 -0.0000 -0.0000 0.9329 21.5671 1.2106
9.6116 18.3997 -12.4302 6.7962 37.3220 1.9638 0.0000 0.0000 0.0000 -18.8821 -16.5582 6.6093 0.0148 0.7843 2.1554 -0.3646 -11.1191 7.5836 0.1249 2.2782 6.2751 0.0000 0.0000 0.0000 13.7879 -0.4454 5.4133 -0.5608 -4.7966 13.3293 1.0190 -27.6402 -33.0772 -2.0903 -9.0517 25.9571 5.5373 2.3962 -7.0167 5.2566 2.6184 -0.4490 2.6183 1.3712 3.4733 -15.2718 -14.2305 2.5938 8.0173 -19.4715 1.5320 4.0910 -9.8044 2.2776 -0.0000 0.0000 0.0000 23.8340 -22.2345 -33.6328 52.1768 -53.8366 -27.9222 -0.0000 -0.0000 19.3000 40.7317 30.0397 23.3192 -7.1250 0.0000 -0.0000 13.6879 66.8524 7.2620 -0.0000 0.0000 0.0000 89.3434 63.8908 78.6659 -49.8382 52.9300 -26.0450 0.0000 0.0000 15.9880 -37.9794 44.1938 -28.5560 7.1250 -0.0000 -0.0000 0.2805 20.9869 0.3624
9.6143 18.3997 -12.4152 6.2643 37.1477 1.5706 0.0000 0.0000 0.0000 -18.4259 -16.5915 6.4198 0.0245 1.0096 2.7752 -0.3970 -11.4157 7.1265 0.0983 2.0220 5.5665 0.0000 0.0000 0.0000 14.3088 -0.3256 5.6280 -0.5483 -4.7439 13.1795 1.1345 -27.9288 -32.8410 -1.9907 -8.8468 25.3172 5.9237 2.6338 -7.0361 5.2391 2.9106 -0.5497 2.4133 1.5203 3.3983 -15.4011 -14.4685 3.5921 7.9842 -19.9257 1.1548 4.1562 -10.0460 2.0671 0.0000 0.0000 0.0000 24.4354 -23.2611 -34.0972 52.3370 -53.8956 -28.0516 -0.0000 -0.0000 19.3532 34.2252 21.8701 14.2190 -7.1250 0.0000 -0.0000 5.9526 55.7755 1.5779 0.0000 0.0000 0.0000 86.5058 65.9327 77.3282 -49.8285 52.9261 -26.0373 0.0000 0.0000 16.5428 -38.5477 43.0353 -28.5361 7.1250 -0.0000 -0.0000 -0.3865 20.0680 -0.4956
9.6208 18.3982 -12.3986 5.8768 36.9148 1.3086 0.0000 0.0000 0.0000 -18.0944 -16.4985 6.4136 0.0278 1.0765 2.9593 -0.4041 -11.4559 6.8897 0.0787 1.8098 4.9802 0.0000 0.0000 0.0000 14.6571 -0.1954 5.7142 -0.5464 -4.7358 13.1567 1.1270 -27.8770 -32.7984 -2.0053 -8.8772 25.4119 6.1560 2.6183 -7.1619 5.1601 2.8595 -0.5399 2.2046 1.4994 3.4944 -15.5666 -14.4668 3.3341 8.1456 -19.9084 1.5500 4.1826 -10.0394 2.2575 0.0000 -0.0000 0.0000 25.0160 -23.3213 -34.2278 52.7203 -54.0354 -28.3616 -0.0000 -0.0000 19.1302 32.0170 15.7458 9.6304 -7.1250 0.0000 -0.0000 4.2294 48.3278 0.3478 0.0000 -0.0000 0.0000 85.3298 68.2995 77.5849 -49.6671 52.8604 -25.9086 0.0000 0.0000 17.1864 -38.3724 42.8436 -28.2992 7.1250 -0.0000 -0.0000 -0.3701 19.8101 -0.4737
9.6344 18.3984 -12.3819 6.1182 36.5971 1.4656 0.0000 0.0000 0.0000 -18.3327 -16.2345 6.6636 0.0215 0.9462 2.6008 -0.3903 -11.2769 6.8514 0.0751 1.7684 4.8661 0.0000 0.0000 0.0000 14.3332 -0.2770 5.6054 -0.5545 -4.7700 13.2536 1.0765 -27.5352 -32.5287 -1.9978 -8.8614 25.3629 5.6970 2.4230 -7.5929 5.0148 2.5837 -0.3704 2.3059 1.3610 3.8972 -15.2602 -14.3646 2.6767 8.0561 -19.6826 2.0579 4.0654 -9.9191 2.4504 -0.0000 0.0000 0.0000 25.4421 -22.8811 -34.2147 53.1605 -54.1933 -28.7182 -0.0000 -0.0000 18.9628 32.5907 13.1252 8.2600 -7.1250 0.0000 -0.0000 4.9339 45.3912 0.0478 -0.0000 0.0000 0.0000 85.0555 71.0297 78.7202 -49.4204 52.7590 -25.7120 0.0000 0.0000 18.0552 -38.7962 41.9489 -28.2531 7.1250 -0.0000 -0.0000 -0.8740 19.0854 -1.1118
9.6450 18.3975 -12.3607 6.6652 36.3765 1.7732 0.0000 0.0000 0.0000 -18.8445 -16.0504 7.0040 0.0151 0.7944 2.1833 -0.3733 -11.0610 6.8436 0.0861 1.8932 5.2105 0.0000 0.0000 0.0000 13.7562 -0.4445 5.5391 -0.5614 -4.7991 13.3364 1.0875 -27.3613 -32.1534 -1.9311 -8.7210 24.9263 5.3356 2.4283 -7.3643 4.5164 2.6767 -0.6974 1.9713 1.3941 3.4346 -15.0113 -14.4120 2.5112 7.9268 -19.7463 2.9469 3.9422 -9.9590 2.7161 -0.0000 -0.0000 0.0000 26.1870 -23.3406 -33.9321 53.5551 -54.3324 -29.0385 -0.0000 -0.0000 18.7999 32.5079 13.8477 8.6721 -7.1250 0.0000 -0.0000 4.8241 46.2172 0.1453 -0.0000 -0.0000 0.0000 82.9156 73.0432 77.5052 -49.2295 52.6800 -25.5601 0.0000 0.0000 18.6367 -38.7759 41.0870 -27.8318 7.1250 -0.0000 -0.0000 -1.1511 18.2125 -1.4535
9.6568 18.3940 -12.3393 6.8657 36.1571 1.8189 0.0000 0.0000 0.0000 -19.0622 -15.9079 7.2171 0.0144 0.7745 2.1286 -0.3738 -11.0408 6.7068 0.0918 1.9542 5.3792 0.0000 0.0000 0.0000 13.5455 -0.3813 5.6636 -0.5629 -4.8056 13.3550 1.1118 -27.3586 -31.9875 -1.8475 -8.5409 24.3693 5.1699 2.3363 -7.2779 4.3191 2.5824 -0.7471 1.8415 1.3434 3.3355 -15.1471 -14.4009 1.5140 7.6169 -19.6138 3.9906 3.7593 -9.8907 3.1560 -0.0000 -0.0000 0.0000 26.6416 -23.3201 -33.9485 53.8656 -54.4404 -29.2910 -0.0000 -0.0000 18.6370 31.9064 15.3944 9.3848 -7.1250 0.0000 -0.0000 4.1468 47.9065 0.2978 -0.0000 -0.0000 0.0000 80.1721 75.5895 76.3479 -49.2077 52.6709 -25.5428 0.0000 0.0000 18.7232 -37.7494 42.4758 -27.6026 7.1250 -0.0000 -0.0000 -0.2008 19.2053 -0.2557
9.6694 18.3919 -12.3179 6.4674 35.8115 1.5389 0.0000 0.0000 0.0000 -18.7198 -15.6472 7.3334 0.0144 0.7758 2.1321 -0.3846 -11.1372 6.4853 0.0805 1.8296 5.0350 0.0000 0.0000 0.0000 13.8647 -0.2983 5.7587 -0.5605 -4.7952 13.3253 1.0665 -27.1710 -31.9596 -1.7699 -8.3694 23.8419 5.3754 2.6939 -7.3910 3.9933 3.0585 -1.0463 1.4340 1.5771 3.1193 -14.0327 -14.5778 2.2245 7.0203 -19.9181 4.1717 3.4834 -10.0530 2.9643 -0.0000 0.0000 0.0000 27.5190 -24.6661 -34.1558 54.3000 -54.5891 -29.6446 -0.0000 -0.0000 18.8582 32.0907 14.5493 8.9521 -7.1250 0.0000 -0.0000 4.3837 46.9641 0.2129 -0.0000 0.0000 0.0000 73.1154 77.1957 69.9425 -48.9641 52.5690 -25.3492 0.0000 0.0000 19.1358 -37.0166 44.0129 -27.6500 7.1250 -0.0000 -0.0000 0.6619 20.4451 0.8515
9.6806 18.3922 -12.2939 6.1497 35.4248 1.3905 0.0000 0.0000 0.0000 -18.4269 -15.4179 7.2476 0.0169 0.8389 2.3057 -0.3927 -11.1927 6.1896 0.0693 1.6983 4.6727 0.0000 0.0000 0.0000 14.0661 -0.4273 5.7179 -0.5519 -4.7589 13.2221 1.0148 -26.8453 -31.7373 -1.7520 -8.3291 23.7183 5.4702 2.8466 -7.5465 3.8819 3.2480 -1.1304 1.2915 1.6714 3.1333 -13.6958 -14.6504 1.9247 6.7025 -19.9775 4.7678 3.3003 -10.0831 3.1336 -0.0000 0.0000 0.0000 28.0557 -25.3671 -34.5242 54.7274 -54.7329 -29.9933 -0.0000 -0.0000 19.1953 32.1433 14.0122 8.6508 -7.1250 0.0000 -0.0000 4.4656 46.3530 0.1494 -0.0000 0.0000 0.0000 65.8857 79.2412 63.6761 -48.5896 52.4106 -25.0521 0.0000 0.0000 19.4187 -36.4978 44.4041 -27.3715 7.1250 -0.0000 -0.0000 1.0352 20.6349 1.3338
9.6903 18.3942 -12.2677 6.3850 35.0863 1.5158 0.0000 0.0000 0.0000 -18.6600 -15.2529 7.1739 0.0214 0.9441 2.5950 -0.3956 -11.1822 5.8482 0.0636 1.6266 4.4747 0.0000 0.0000 0.0000 13.8117 -0.3784 5.8440 -0.5420 -4.7167 13.1022 0.9868 -26.6809 -31.6408 -1.8111 -8.4610 24.1234 5.0750 2.9628 -7.6835 3.6540 3.4325 -1.2104 1.2982 1.7575 3.1212 -13.5091 -14.7030 1.8109 6.5731 -20.0423 5.2300 3.2076 -10.1170 3.2674 -0.0000 -0.0000 0.0000 28.8520 -26.0427 -34.9393 54.8815 -54.7841 -30.1191 -0.0000 -0.0000 19.1717 31.3545 14.6305 8.7493 -7.1250 0.0000 -0.0000 3.6654 46.9445 0.1761 -0.0000 -0.0000 0.0000 55.0231 80.9515 53.7381 -48.5179 52.3800 -24.9953 0.0000 0.0000 19.7315 -35.4028 44.0714 -26.3057 7.1250 -0.0000 -0.0000 1.4297 19.9112 1.8316
9.6953 18.3931 -12.2394 6.5761 34.8649 1.5245 0.0000 0.0000 0.0000 -18.8587 -14.9971 7.6805 0.0128 0.7313 2.0098 -0.3760 -10.9248 5.8360 0.0628 1.6171 4.4485 0.0000 0.0000 0.0000 13.6983 -0.1831 6.0528 -0.5472 -4.7390 13.1656 1.0141 -26.8055 -31.6728 -1.7818 -8.3960 23.9236 4.6674 3.0377 -7.7264 3.3454 3.5859 -1.4954 1.2115 1.8245 2.8465 -12.9901 -14.7417 2.7422 6.3042 -20.1880 5.1974 3.1386 -10.2039 3.0474 0.0000 -0.0000 0.0000 29.6697 -26.5415 -34.7791 55.2057 -54.8908 -30.3842 -0.0000 -0.0000 18.7268 30.9534 14.6254 8.6113 -7.1250 0.0000 -0.0000 3.2783 46.8776 0.1521 0.0000 -0.0000 0.0000 41.8875 81.7478 41.3071 -48.4457 52.3491 -24.9382 0.0000 0.0000 20.4349 -34.7344 43.5227 -25.5221 7.1250 -0.0000 -0.0000 1.5632 19.1348 1.9898
